<svg xmlns="http://www.w3.org/2000/svg" xmlns:xlink="http://www.w3.org/1999/xlink" width="678.076" height="476.033" viewBox="0 0 678.076 476.033">
  <defs>
    <filter id="Path_17" x="367.822" y="0" width="310.254" height="150.855" filterUnits="userSpaceOnUse">
      <feOffset dy="3" input="SourceAlpha"/>
      <feGaussianBlur stdDeviation="3" result="blur"/>
      <feFlood flood-color="#ff6767" flood-opacity="0.161"/>
      <feComposite operator="in" in2="blur"/>
      <feComposite in="SourceGraphic"/>
    </filter>
  </defs>
  <g id="Group_11" data-name="Group 11" transform="translate(-661.763 -254.91)">
    <g transform="matrix(1, 0, 0, 1, 661.76, 254.91)" filter="url(#Path_17)">
      <path id="Path_17-2" data-name="Path 17" d="M-994.245,1590.52-963,1552.166s-13.575-31.164,24.823-62.324,215.919-40.841,226.935,38.764S-954.6,1567.25-954.9,1566.641-994.245,1590.52-994.245,1590.52Z" transform="translate(1374.94 -1455.9)" fill="none" stroke="rgba(255,255,255,0.9)" stroke-width="10"/>
    </g>
    <text id="hi_i_m_alexis_welcome_to_my_portfolio" data-name="hi, i’m alexis! 
welcome to my portfolio" transform="translate(1193 317)" fill="#a26c6c" font-size="17" font-family="Inconsolata-Bold, Inconsolata" font-weight="700"><tspan x="-68" y="0">hi, i’m alexis! </tspan><tspan x="-97.75" y="18">welcome to my portfolio</tspan></text>
    <g id="Layer_2" data-name="Layer 2" transform="matrix(0.995, -0.105, 0.105, 0.995, 660.697, 313.96)">
      <g id="Layer_1" data-name="Layer 1" transform="translate(0 0)">
        <path id="Path_18" data-name="Path 18" d="M24.407,36.906S-.028,12.6,0,0" transform="translate(267.242 374.492)" fill="#ffdfe4"/>
        <path id="Path_19" data-name="Path 19" d="M25.12,37.221a39.512,39.512,0,0,1-9.749-6.413,54.462,54.462,0,0,1-7.827-8.433A43.866,43.866,0,0,1,1.758,12.187,25.617,25.617,0,0,1,.177,6.338,12.833,12.833,0,0,1,.644.2V.127A.2.2,0,0,1,.909.015.2.2,0,0,1,1.034.2,16.469,16.469,0,0,0,2.267,5.558a35.614,35.614,0,0,0,2.388,5.021,81.675,81.675,0,0,0,6.2,9.289c2.214,3,4.575,5.9,7.005,8.739Q19.7,30.7,21.583,32.785c1.246,1.393,2.507,2.785,3.8,4.122a.209.209,0,0,1,0,.292.2.2,0,0,1-.223,0Z" transform="translate(266.382 374.316)" fill="#ff7f86"/>
        <line id="Line_9" data-name="Line 9" x1="53.179" y2="378.593" transform="translate(298.306 30.709)" fill="#ffdfe4"/>
        <path id="Path_20" data-name="Path 20" d="M53.653.275,41.328,95.06,28.794,189.811,22.6,237.2l-3.2,23.676c-1.1,7.89-2.256,15.765-3.419,23.676l-3.607,23.62c-1.253,7.869-2.458,15.744-3.76,23.606s-2.583,15.716-3.92,23.578L2.6,367.12l-1.038,5.891L.488,378.888a.244.244,0,0,1-.285.195.251.251,0,0,1-.2-.258l.578-5.954.627-5.947,1.26-11.887q1.33-11.873,2.73-23.745c.912-7.917,1.922-15.814,2.89-23.724l3.036-23.676q1.574-11.838,3.231-23.676l3.482-23.641,7.1-47.261L38.954,94.768,53.173.2a.244.244,0,0,1,.279-.2.237.237,0,0,1,.2.272Z" transform="translate(298.069 30.469)" fill="#ff7f86"/>
        <line id="Line_10" data-name="Line 10" x1="41.328" y2="294.21" transform="translate(269.471 67.754)" fill="#ffdfe4"/>
        <path id="Path_21" data-name="Path 21" d="M41.81.281,32.444,73.968,22.834,147.62l-4.707,36.843-2.458,18.4c-.857,6.135-1.769,12.256-2.681,18.376l-2.869,18.335c-1,6.107-1.964,12.228-3.015,18.328C5.015,270.12,2.926,282.319.482,294.478a.251.251,0,0,1-.285.195A.244.244,0,0,1,0,294.408c1.031-12.353,2.319-24.671,3.7-36.976.7-6.163,1.434-12.3,2.152-18.453l2.3-18.425c.808-6.142,1.622-12.276,2.486-18.4L13.35,183.78l5.619-36.711L30.028,73.613,41.336.211a.246.246,0,1,1,.487.07Z" transform="translate(269.233 67.508)" fill="#ff7f86"/>
        <path id="Path_22" data-name="Path 22" d="M73.137,4.763C84.445,15.7,88.637,38.41,84.188,52.295c-4.178,13-47.852,58.492-51.815,66.4C28.634,126.114,10.96,193.909,8.83,201.13a5.969,5.969,0,0,0-.244,1.393c-.216,3.6-4.3,12.444-1.031,22.039C11.253,235.4,0,261.607,0,261.607c10.062-10.543,15.772-35.848,12.931-47.866s18.85-43.974,23.418-50.777,39.5-39.072,46.314-46.216c7.186-7.527,14.456-26.767,17.764-39.086,2.472-9.226-3-17.861,2.667-32.206,5.048-12.785-8.823-34.4-12.973-40.046C84.125-2.73,73.944.731,73.944.731" transform="translate(197.246 112.919)" stroke="#1a1a1a" stroke-linecap="square" stroke-linejoin="bevel" stroke-width="1"/>
        <path id="Path_23" data-name="Path 23" d="M53.863,4.018C62.762,12.7,66.341,36.906,66.139,52c-.223,16.622-36.168,46.815-42.56,55.129s-8.5,32.505,2.639,54.711S14.624,199.153,3.824,228.051s4.707,56.4,4.707,56.4-5.668-16.016-4.115-28.808,40.137-50.269,42.024-59.091S28.509,146.28,27.883,134.839s33.153-28.014,49.531-61.3S58.821,0,58.821,0" transform="translate(221.68 108.344)" fill="#743e00" stroke="#1a1a1a" stroke-linecap="square" stroke-linejoin="bevel" stroke-width="1"/>
        <path id="Path_24" data-name="Path 24" d="M73.589,4.731c11.288,10.96,15.438,33.682,10.967,47.553-4.178,12.994-47.964,58.423-51.94,66.312-3.753,7.437-21.587,75.2-23.676,82.412A6.22,6.22,0,0,0,8.7,202.4c-.223,3.593-4.324,12.43-1.072,22.032C11.3,235.268,0,261.458,0,261.458c10.083-10.515,15.835-35.813,13.022-47.839S31.955,169.68,36.53,162.891s39.566-39,46.4-46.133c7.2-7.513,14.512-26.739,17.833-39.051,2.493-9.227-2.959-17.868,2.73-32.206,5.069-12.778-8.753-34.413-12.9-40.067C84.612-2.72,74.432.72,74.432.72" transform="translate(220.379 115.611)" stroke="#1a1a1a" stroke-linecap="square" stroke-linejoin="bevel" stroke-width="1"/>
        <path id="Path_25" data-name="Path 25" d="M210.97,16.059c-16.712-4.874-41.084,2.785-52.225,13.927C148.3,40.431,127.409,103.8,121.839,111.458c-5.25,7.221-61.807,57.928-67.7,63.541a6.613,6.613,0,0,1-1.219.926c-3.391,2.019-9.811,10.278-20.89,12.13C19.5,190.144,0,213.82,0,213.82c4.874-14.623,26.461-32.728,39.691-36.21S72.419,137.919,76.6,130.259,93.491,74.015,96.791,64.107c3.482-10.445,18.321-26.914,28.55-36.21,7.66-6.963,19-6.3,29.943-18.8C165.033-2.046,193.52-.228,201.242.74c11.141,1.393,13.23,12.534,13.23,12.534" transform="translate(93.561 99.743)" stroke="#1a1a1a" stroke-linecap="square" stroke-linejoin="bevel" stroke-width="1"/>
        <path id="Path_26" data-name="Path 26" d="M50,0S77.6,9.992,83.763,29.17c6.768,21.043-7.994,94.772-20.082,103.351s-37.526,45.993-27.854,67.705,7.249,42.734-5.223,50.707S.661,273.466,0,278.967c0,0,1.65-19.665,10.522-22.8S27.6,241.01,28.592,226.846s-19.024-42.818-18.1-51.856,2.556-38.661,12.471-46.028c24.372-18.1,43.479-49.12,50.77-67.155S52.9,9.24,47.268,6.943" transform="translate(258.364 113.365)" fill="#2a1b00" stroke="#1a1a1a" stroke-linecap="square" stroke-linejoin="bevel" stroke-width="1"/>
        <path id="Path_27" data-name="Path 27" d="M73.617,4.731C84.9,15.692,89.055,38.413,84.584,52.284,80.406,65.278,36.62,110.707,32.644,118.6c-3.746,7.437-21.587,75.2-23.676,82.412a6.22,6.22,0,0,0-.244,1.393c-.216,3.593-4.324,12.43-1.065,22.032C11.336,235.268,0,261.458,0,261.458c10.083-10.522,15.842-35.813,13.022-47.839S31.955,169.68,36.53,162.891s39.573-39,46.4-46.133c7.2-7.513,14.512-26.739,17.84-39.051C103.26,68.481,97.8,59.84,103.49,45.5c5.069-12.778-8.753-34.413-12.9-40.067C84.619-2.72,74.432.72,74.432.72" transform="translate(237.049 112.951)" stroke="#1a1a1a" stroke-linecap="square" stroke-linejoin="bevel" stroke-width="1"/>
        <path id="Path_28" data-name="Path 28" d="M52.323,5.555C65.7,17.3,72.6,42.461,69.244,58.17,66.1,72.856,23.585,125.451,20.1,134.427c-3.259,8.467-15.319,84.884-16.865,93.024A7.264,7.264,0,0,0,3.12,229c.146,4.025-3.349,14.066,1.191,24.643C9.442,265.6,0,295.316,0,295.316c9.784-12.179,13.321-40.659,9-53.966s15.8-49.865,20.034-57.643,38.654-45.262,45.262-53.493c6.963-8.7,12.847-30.479,15.138-44.364,1.713-10.4-5.111-19.825-.48-36.07C93.08,35.3,75.824,11.732,70.741,5.6c-7.332-8.85-17.986-4.568-17.986-4.568" transform="translate(255.648 109.126)" stroke="#1a1a1a" stroke-linecap="square" stroke-linejoin="bevel" stroke-width="1"/>
        <path id="Path_29" data-name="Path 29" d="M53.849,4.025C62.748,12.708,66.328,36.913,66.126,52c-.223,16.622-36.168,46.815-42.56,55.136s-8.5,32.5,2.653,54.684-11.594,37.31-22.394,66.215,4.707,56.4,4.707,56.4-5.668-16.016-4.115-28.808,40.137-50.269,42.024-59.084-17.931-50.283-18.557-61.724S61.042,106.853,77.4,73.547,58.807,0,58.807,0" transform="translate(251.288 112.264)" fill="#743e00" stroke="#1a1a1a" stroke-linecap="square" stroke-linejoin="bevel" stroke-width="1"/>
        <path id="Path_30" data-name="Path 30" d="M89.131,0C78.6,15.062,51.32,27.018,41.78,31.335,12.534,44.566,0,72.419,0,72.419l54.934,3.363" transform="translate(63.598 283.62)" fill="#ffdfe4" stroke="#4d4d4d" stroke-linecap="square" stroke-linejoin="bevel" stroke-width="2"/>
        <path id="Path_31" data-name="Path 31" d="M41.084,1.413C11.838,14.644,0,41.8,0,41.8l54.314,3.482S75,6.023,73.116,4.895C59.189-3.461,41.084,1.413,41.084,1.413Z" transform="translate(63.598 314.238)" fill="#1d0035" stroke="#4d4d4d" stroke-linecap="square" stroke-linejoin="bevel" stroke-width="2"/>
        <path id="Path_32" data-name="Path 32" d="M73.017,225.614l16.712.7c8.356-11.141,52.225-42.477,52.225-42.477,44.566-14.623,28.55-26.461,48.744-41.78s29.943-11.838,37.6-11.838,50.561-1.678,73.116-20.89C320.218,93.309,362,62.671,363.391,57.1s7.66-7.66,7.66-7.66C400.3,27.854,402.386,0,402.386,0,381.5,2.785,364.783,38.3,362,41.78s-11.141,11.141-34.121,25.068-1.393,2.089-35.513,25.068-72.419,15.319-78.686,15.319-20.194-9.749-21.587-15.319S198.532,74.3,198.532,74.3L183.094,51.439s-13.286,32.791-18.161,34.183c-2.556.731-31.913,9.589-36.21,13.23-9.052,7.66-39,59.189-42.477,73.116-3.078,12.325-31.154,75.9-41.78,76.6-7.82.522-16.016-3.356-27.157.7C9.65,252.047-2.884,265.974.6,265.974s14.623-9.749,20.89-9.749S38.9,261.8,43.771,261.8s12.534-6.267,22.283-24.372,27.707-46.585,32.032-51.529c0,0,37.6-53.618,38.3-55.707" transform="translate(55.34 134.603)" fill="#ffdfe4" stroke="#4d4d4d" stroke-linecap="square" stroke-linejoin="bevel" stroke-width="2"/>
        <path id="Path_33" data-name="Path 33" d="M33.424,107.221S7.66,93.294,5.571,89.116,0,58.477,0,53.6c0-10.445,10.445-28.55,14.623-34.817C18.265,13.32,36.21-8.33,72.419,3.466c21.343,6.963,16.712,36.906,16.016,49.44C88.017,60.4,82.377,73.281,77.99,79.367,73.7,85.321,64.76,96.08,61.278,98.865,57.357,102,40.388,107.917,33.424,107.221Z" transform="translate(235.594 109.55)" fill="#ffdfe4" stroke="#4d4d4d" stroke-linecap="square" stroke-linejoin="bevel" stroke-width="2"/>
        <path id="Path_34" data-name="Path 34" d="M0,.522S23.676-1.567,33.424,2.611C33.424,2.611,15.319,33.25,0,.522Z" transform="translate(263.447 188.395)" fill="#fff" stroke="#4d4d4d" stroke-linecap="square" stroke-linejoin="bevel" stroke-width="2"/>
        <path id="Path_35" data-name="Path 35" d="M4.178,0S13.23,7.541,0,10.445" transform="translate(282.45 172.797)" fill="none" stroke="#1a1a1a" stroke-linecap="round" stroke-linejoin="bevel" stroke-width="2"/>
        <path id="Path_36" data-name="Path 36" d="M41.216.026c17.408-.7,53.695,12.6,53.695,12.6C74.717,27.95,90.733,39.787,46.167,54.411c0,0-13.015,9.3-26.217,19.567,0,0-11.733-13.662-19.95-14.212Z" transform="translate(150.508 264.792)" fill="#e9f2ff" stroke="#4d4d4d" stroke-linecap="square" stroke-linejoin="bevel" stroke-width="2"/>
        <path id="Path_37" data-name="Path 37" d="M47.351,0C37.693,13.815,13.927,25.012,2.723,30.11L0,31.335s19.142-2.43,33.132,3.168c0,0,5.459-10.355,6.267-15.612S47.351,0,47.351,0Z" transform="translate(103.519 284.601)" fill="#e9f2ff" stroke="#4d4d4d" stroke-linecap="square" stroke-linejoin="bevel" stroke-width="2"/>
        <line id="Line_11" data-name="Line 11" y1="38.02" x2="9.22" transform="translate(191.724 226.798)" fill="#e9f2ff"/>
        <path id="Path_38" data-name="Path 38" d="M.051,38.125A52.225,52.225,0,0,1,.56,28.188a89.529,89.529,0,0,1,1.8-9.63,91.217,91.217,0,0,1,2.82-9.38A53.184,53.184,0,0,1,9.271.125L9.34,0l.23.056V.188Q8.5,4.965,7.349,9.714L5.093,19.226,2.739,28.71Q1.583,33.452.351,38.187l-.042.139-.223-.056Z" transform="translate(191.541 226.659)" fill="#4d4d4d"/>
        <line id="Line_12" data-name="Line 12" x1="11.141" y2="41.084" transform="translate(245.342 236.268)" fill="#e9f2ff"/>
        <path id="Path_39" data-name="Path 39" d="M11.441.181a60.832,60.832,0,0,1-1,10.752,103.068,103.068,0,0,1-2.284,10.41A105.439,105.439,0,0,1,4.86,31.475,61.611,61.611,0,0,1,.3,41.265l-.07.125L0,41.328l.035-.139Q1.351,36.043,2.73,30.9L5.508,20.612,8.293,10.382Q9.686,5.257,11.169.132L11.2,0l.23.063Z" transform="translate(245.175 236.122)" fill="#4d4d4d"/>
        <path id="Path_40" data-name="Path 40" d="M.087,6.272A14.875,14.875,0,0,1,2.281,4.03,18.64,18.64,0,0,1,4.788,2.24,17.752,17.752,0,0,1,7.573.847,12.191,12.191,0,0,1,10.909.019a7.227,7.227,0,0,1,1.038,0,4.512,4.512,0,0,1,.585.049l.3.056.188.042c.508.118,1.01.23,1.5.39a17.6,17.6,0,0,1,2.862,1.163,14.284,14.284,0,0,1,2.632,1.727,8.356,8.356,0,0,1,2.131,2.493L22.182,6a.132.132,0,0,1-.063.174.119.119,0,0,1-.125,0,16.5,16.5,0,0,0-2.6-1.246c-.891-.362-1.8-.7-2.723-.968s-1.859-.543-2.785-.766c-.467-.111-.94-.209-1.393-.306A4.8,4.8,0,0,0,11.1,2.8,20.674,20.674,0,0,0,5.533,4.238C3.729,4.935,1.94,5.7.192,6.529a.125.125,0,0,1-.174-.063.132.132,0,0,1,0-.132Z" transform="translate(294.632 158.845)" fill="#1a1a1a"/>
        <path id="Path_41" data-name="Path 41" d="M47.518,0s46.655,15.319,28.55,72.858C66.647,102.8,37.825,132.3,34.023,147.116c-3.113,12.144-4.31,49.05-.091,62.671C37.874,222.487,2.973,263.4,0,265.319c0,0,29.386-39.092,23.425-61.5-4.589-17.234-1.393-62.058,4.178-72.015,5.842-10.5,36.593-45.151,39.907-61.9C75.421,29.957,55.073,8.293,48.263,4.192" transform="translate(257.361 117.543)" fill="#2a1100" stroke="#1a1a1a" stroke-linecap="square" stroke-linejoin="bevel" stroke-width="1"/>
        <path id="Path_42" data-name="Path 42" d="M0,5.133A10.445,10.445,0,0,1,5.842.641,13.432,13.432,0,0,1,9.651,0a15.146,15.146,0,0,1,3.816.453A17.813,17.813,0,0,1,16.949,1.8a18.647,18.647,0,0,1,3.043,2.026,18.891,18.891,0,0,1,4.519,5.487v.049a.132.132,0,0,1-.049.181.139.139,0,0,1-.146,0c-1.817-1.316-3.593-2.667-5.5-3.8A26.959,26.959,0,0,0,15.856,4.22a21.593,21.593,0,0,0-3.134-1.065A17.668,17.668,0,0,0,9.47,2.647,14.811,14.811,0,0,0,3.015,3.775,13.407,13.407,0,0,0,.209,5.383a.125.125,0,0,1-.188,0,.139.139,0,0,1,0-.146Z" transform="translate(253.26 152.686)" fill="#1a1a1a"/>
        <path id="Path_43" data-name="Path 43" d="M11.247,4.97C11.15,7.059,7.4,9.037,4.374,8.452S-.813,4.706.294,2.881A5.445,5.445,0,0,1,6.47.138C9.493.7,11.338,2.9,11.247,4.97Z" transform="translate(259.421 155.724)" stroke="#1a1a1a" stroke-linecap="round" stroke-linejoin="bevel" stroke-width="1"/>
        <path id="Path_44" data-name="Path 44" d="M4.227,9.236C2.138,9.4.049,7.147,0,4.772-.055,1.695,3.7-.694,5.62.184,7.876,1.207,9.29,2.683,9.1,5.754S6.289,9.076,4.227,9.236Z" transform="translate(301.348 161.228)" stroke="#1a1a1a" stroke-linecap="round" stroke-linejoin="bevel" stroke-width="1"/>
        <path id="Path_45" data-name="Path 45" d="M1.817.869C4.031.57,6.2.347,8.4.173A50.787,50.787,0,0,1,15.089.061,15.576,15.576,0,0,1,16.83.27c.3.056.6.118.912.209s.55.209.822.306a16.581,16.581,0,0,1,2.994,1.643,55.2,55.2,0,0,1,5.035,4.178,55.472,55.472,0,0,0-5.654-3.085A14.867,14.867,0,0,0,17.993,2.6l-.738-.125c-.216,0-.446-.049-.7-.056h-1.5a48.748,48.748,0,0,0-6.218.961c-2.089.439-4.178.947-6.19,1.5h0A2.095,2.095,0,0,1,1.538.841Z" transform="translate(295.326 151.88)" fill="#42210b"/>
        <path id="Path_46" data-name="Path 46" d="M25.4,7.794c-2-1.038-4.088-2.033-6.17-2.946A46.772,46.772,0,0,0,12.9,2.509a13.38,13.38,0,0,0-1.567-.327,6.765,6.765,0,0,0-.731-.063H9.791A15.372,15.372,0,0,0,6.5,2.606,59.88,59.88,0,0,0,0,4.967,59.179,59.179,0,0,1,6.079,1.408,17.046,17.046,0,0,1,9.561.225c.306-.07.613-.118.919-.174A7.152,7.152,0,0,1,11.49,0a15,15,0,0,1,1.88.146,49.981,49.981,0,0,1,7.005,1.6c2.277.7,4.5,1.393,6.755,2.228a2.1,2.1,0,0,1-1.441,3.934,1.441,1.441,0,0,1-.237-.1Z" transform="translate(254.242 144.907)" fill="#42210b"/>
        <path id="Path_47" data-name="Path 47" d="M196.368,8.212s-15.786-12.04-34.817-6.963c-20.89,5.571-73.812,57.1-74.508,71.723s-18.1,55.707-41.084,59.189-39,16.712-39,31.335S4.178,200.4,0,203.884c0,0,15.319-11.838,13.23-20.89s3.482-22.283,14.623-30.639,45.262-6.963,52.225-12.534S110.572,117.134,111.414,105c2.089-29.943,17.541-62.322,28.55-77.99S190.1,9.6,194.975,13.087" transform="translate(111.993 105.152)" fill="#2a1b00" stroke="#1a1a1a" stroke-linecap="square" stroke-linejoin="bevel" stroke-width="1"/>
        <path id="Path_48" data-name="Path 48" d="M206.987,7.093c-11.838-2.785-33.64,7.124-45.958,15.319-13.565,9.052-19.5,55.011-22.979,64.76s-22.283,24.372-46.411,26.893-24.616,29.511-42.72,53.883S0,194.046,0,194.046s16.19-3.816,25.89-11.9,20.243-60.157,26.51-66.424,50.833-11.838,60.582-17.408,5.571-42.477,24.372-73.812S207.683.826,207.683.826" transform="translate(98.589 114.628)" fill="#743e00" stroke="#1a1a1a" stroke-linecap="square" stroke-linejoin="bevel" stroke-width="1"/>
        <path id="Path_49" data-name="Path 49" d="M6.345,17.138a5.327,5.327,0,0,1-3.482,1.393c-2.089,0-4.874-16.016-.7-18.1S9.826,4.6,9.826,4.6" transform="translate(238.301 143.229)" fill="#ffdfe4" stroke="#4d4d4d" stroke-linecap="square" stroke-linejoin="bevel" stroke-width="2"/>
        <path id="Path_50" data-name="Path 50" d="M184.53.107s-43.869-2.9-66.152,21.475c-20.807,22.756-28.8,63.457-39,74.508-8.356,9.052-38.111,29.692-51.529,33.424C15.319,133,0,183.829,0,187.311c0,0,16.712-45.262,38.3-52.225,16.6-5.355,51.815-31.878,57.1-41.78,5.571-10.445,18.1-54.314,29.943-66.152,21.587-21.587,50.136-23.676,57.1-20.194" transform="translate(120.343 117.575)" fill="#2a1100" stroke="#1a1a1a" stroke-linecap="square" stroke-linejoin="bevel" stroke-width="1"/>
        <path id="Path_51" data-name="Path 51" d="M120.977,10.862s-28.55,1.692-36.983,5.055c-11.141,4.471-16.427,29.72-19.289,35.249S48.99,79.5,26.693,80.587,0,147.073,0,147.073-.436,78.136,10.761,74.1s46.815-11.19,51.195-25.765S73.48,10.6,84.141,5.459C97.448-.955,114.87-1.08,122.5,1.817" transform="translate(183.039 118.295)" fill="#4a2e00" stroke="#1a1a1a" stroke-linecap="square" stroke-linejoin="bevel" stroke-width="1"/>
        <path id="Path_52" data-name="Path 52" d="M4.074,6.963s18.8,6.267,22.979,23.676C29.922,42.581,4.506,73.248,1.289,78.686s-.655,37.825,10.445,57.8l6.963,8.356L14.3,136.044a9.052,9.052,0,0,1-.7-1.887c-3.106-12.618-9.24-35.834-3.962-49.9,2.089-5.571,22.917-42.31,21.587-54.314C29.574,14.943,15.912,2.785,5.467,0" transform="translate(300.109 121.721)" fill="#4a2e00" stroke="#1a1a1a" stroke-linecap="square" stroke-linejoin="bevel" stroke-width="1"/>
        <ellipse id="Ellipse_29" data-name="Ellipse 29" cx="0.696" cy="0.696" rx="0.696" ry="0.696" transform="translate(267.974 158.627)" fill="#fff"/>
        <ellipse id="Ellipse_30" data-name="Ellipse 30" cx="0.696" cy="0.696" rx="0.696" ry="0.696" transform="translate(306.62 163.849)" fill="#fff"/>
        <path id="Path_53" data-name="Path 53" d="M47.518,0s46.655,15.319,28.55,72.858C66.647,102.8,37.825,132.3,34.03,147.116c-3.113,12.144-4.317,49.05-.1,62.671C37.874,222.487,2.973,263.4,0,265.319c0,0,29.386-39.093,23.425-61.5-4.589-17.234-1.393-62.058,4.143-72.015,5.842-10.5,36.593-45.151,39.907-61.9,7.91-39.949-13.14-62.462-22.192-65.247" transform="translate(261.003 112.898)" fill="#2a1100" stroke="#1a1a1a" stroke-linecap="square" stroke-linejoin="bevel" stroke-width="1"/>
        <rect id="Rectangle_22" data-name="Rectangle 22" width="2.479" height="19.303" transform="translate(307.233 109.585) rotate(15.36)" fill="#4a2e00"/>
        <line id="Line_13" data-name="Line 13" y1="302.908" x2="41.78" transform="translate(38.53 45.471)" fill="#ffdfe4"/>
        <path id="Path_54" data-name="Path 54" d="M0,303.119l9.47-75.859,9.749-75.831,4.735-37.888,2.507-18.982c.863-6.316,1.783-12.618,2.709-18.92l2.862-18.892c1.017-6.267,1.978-12.59,3.043-18.871C37.165,25.3,39.324,12.739,41.754.211a.246.246,0,1,1,.487.07C41.19,13,39.881,25.677,38.474,38.343c-.7,6.337-1.455,12.659-2.18,18.989L33.969,76.307c-.815,6.316-1.636,12.632-2.514,18.94l-2.723,18.92-5.682,37.8L11.909,227.594.475,303.189a.244.244,0,0,1-.279.2A.251.251,0,0,1,0,303.119Z" transform="translate(38.298 45.225)" fill="#ff7f86"/>
        <line id="Line_14" data-name="Line 14" x2="228.399" y2="19.498" transform="translate(83.792 44.079)" fill="#ffdfe4"/>
        <path id="Path_55" data-name="Path 55" d="M.321.013c19.066,1.233,38.125,2.6,57.183,3.9L114.667,8.09l28.592,1.971q14.289,1,28.55,2.416l14.247,1.462c4.749.55,9.5,1.051,14.24,1.65,9.491,1.135,18.968,2.375,28.425,3.92a.244.244,0,0,1,.2.279.251.251,0,0,1-.244.209c-9.575-.118-19.128-.5-28.675-.975-4.777-.209-9.54-.522-14.31-.787l-14.324-.968q-14.289-1-28.55-2.458l-28.55-2.9L57.233,6.342C38.23,4.392,19.22,2.512.217.5A.251.251,0,0,1,0,.228.244.244,0,0,1,.321.013Z" transform="translate(83.491 43.857)" fill="#ff7f86"/>
        <line id="Line_15" data-name="Line 15" x1="297.351" y1="20.048" transform="translate(0.231 398.989)" fill="#ffdfe4"/>
        <path id="Path_56" data-name="Path 56" d="M297.568,20.535l-74.4-4.039-74.39-4.282-37.2-2.047L92.983,9.039c-6.2-.411-12.388-.877-18.578-1.351L55.841,6.149c-6.183-.564-12.374-1.079-18.557-1.692C24.916,3.287,12.556,2.019.217.487A.258.258,0,0,1,0,.209.244.244,0,0,1,.245,0C12.681.139,25.1.543,37.513,1.038c6.211.223,12.416.543,18.62.815l18.6.968c6.2.362,12.4.731,18.592,1.156L111.9,5.369l37.115,2.953,74.292,5.745,74.272,5.989a.241.241,0,0,1-.014.481Z" transform="translate(0 398.745)" fill="#ff7f86"/>
        <line id="Line_16" data-name="Line 16" y1="389.783" x2="53.764" transform="translate(1.129 2.034)" fill="#ffdfe4"/>
        <path id="Path_57" data-name="Path 57" d="M0,389.995,12.48,292.417,25.2,194.874l6.267-48.786L34.7,121.716q1.671-12.179,3.482-24.372l3.642-24.316c1.26-8.105,2.479-16.211,3.8-24.3s2.611-16.19,3.955-24.281l2.089-12.123,1.045-6.065L53.8.205a.251.251,0,0,1,.285-.2.244.244,0,0,1,.195.265L53.7,6.4l-.634,6.114L51.747,24.765Q50.41,36.986,48.961,49.206c-.926,8.147-1.95,16.28-2.925,24.421L42.959,98q-1.6,12.186-3.259,24.372l-3.482,24.372L29.06,195.41,14.889,292.765.51,390.065a.237.237,0,0,1-.272.2A.244.244,0,0,1,0,389.995Z" transform="translate(0.884 1.787)" fill="#ff7f86"/>
        <line id="Line_17" data-name="Line 17" x2="293.904" y2="25.089" transform="translate(59.371 0.244)" fill="#ffdfe4"/>
        <path id="Path_58" data-name="Path 58" d="M.259,0,73.82,5.3l73.533,5.571,36.781,2.681,18.376,1.441c6.128.515,12.242,1.086,18.362,1.671l18.349,1.852c6.107.662,12.221,1.281,18.328,2,12.221,1.393,24.428,2.862,36.614,4.6a.245.245,0,0,1-.042.487c-12.3-.348-24.588-.961-36.864-1.671-6.135-.327-12.27-.752-18.4-1.135l-18.39-1.281c-6.128-.467-12.256-.94-18.383-1.469l-18.355-1.692-36.7-3.6L73.611,7.792.217.488A.245.245,0,0,1,.259,0Z" transform="translate(59.133 0)" fill="#ff7f86"/>
        <path id="Path_59" data-name="Path 59" d="M0,0S16.016,33.424,20.89,36.906" transform="translate(58.375 4.039)" fill="#ffdfe4"/>
        <path id="Path_60" data-name="Path 60" d="M.394.122a48.047,48.047,0,0,1,7.2,8.273,83.443,83.443,0,0,1,5.522,9.052,98.8,98.8,0,0,1,4.415,9.547q.975,2.444,1.838,4.951c.258.863.578,1.671.856,2.521.139.432.3.836.46,1.253l.244.634.292.606.042.1a.195.195,0,0,1-.286.244,10.445,10.445,0,0,1-1.894-1.95c-.557-.7-1.086-1.393-1.588-2.152-1-1.476-1.936-2.994-2.848-4.519-1.81-3.05-3.537-6.156-5.223-9.275S6.181,13.095,4.6,9.919L2.26,5.142.018.3a.209.209,0,0,1,.1-.272.2.2,0,0,1,.216,0Z" transform="translate(58.169 3.827)" fill="#ff7f86"/>
        <path id="Path_61" data-name="Path 61" d="M0,27.854S18.8.7,32.728,0" transform="translate(314.628 31.893)" fill="#ffdfe4"/>
        <path id="Path_62" data-name="Path 62" d="M.027,28.451A35.938,35.938,0,0,1,4.644,17.943,47.911,47.911,0,0,1,11.768,9.1c.7-.7,1.393-1.309,2.089-1.943a24.348,24.348,0,0,1,2.27-1.8A31.524,31.524,0,0,1,21.14,2.268,23.056,23.056,0,0,1,26.829.284a12.088,12.088,0,0,1,6.065.223h.07a.195.195,0,0,1,.125.251A.2.2,0,0,1,32.915.9a15.236,15.236,0,0,0-5.195,1.393,31.337,31.337,0,0,0-4.693,2.744A47.348,47.348,0,0,0,18.7,8.368c-1.393,1.177-2.723,2.423-4.018,3.712-2.625,2.535-5.1,5.23-7.479,8.008C6.023,21.48,4.86,22.873,3.725,24.335S1.448,27.2.368,28.68a.2.2,0,0,1-.285.042.2.2,0,0,1-.077-.209Z" transform="translate(314.427 31.178)" fill="#ff7f86"/>
        <path id="Path_63" data-name="Path 63" d="M0,34.121S25.068,18.1,27.854,0" transform="translate(6.15 357.78)" fill="#ffdfe4"/>
        <path id="Path_64" data-name="Path 64" d="M.08,34.14a102.053,102.053,0,0,1,7.193-8.906c2.437-2.785,4.874-5.411,7.284-8.05,1.212-1.309,2.388-2.632,3.544-3.962.6-.655,1.135-1.344,1.734-2.005s1.135-1.344,1.678-2.04A74.1,74.1,0,0,0,27.857.166L27.9.1a.209.209,0,0,1,.279-.07.223.223,0,0,1,.1.2,28.015,28.015,0,0,1-1.393,5.515,34.322,34.322,0,0,1-2.465,5.125A46.47,46.47,0,0,1,21.276,15.6c-1.128,1.518-2.333,2.98-3.6,4.387a86.921,86.921,0,0,1-8.217,7.8A81.825,81.825,0,0,1,.31,34.5a.209.209,0,0,1-.279-.063.216.216,0,0,1,0-.223Z" transform="translate(5.959 357.579)" fill="#ff7f86"/>
        <path id="Path_65" data-name="Path 65" d="M0,35.513,22.283,0s8.356,0,19.5,13.927c0,0-22.457,17.805-25.068,22.283Z" transform="translate(128.357 324.704)" fill="#1d0035" stroke="#4d4d4d" stroke-linecap="round" stroke-linejoin="bevel" stroke-width="2"/>
        <line id="Line_18" data-name="Line 18" x2="76.249" y2="4.526" transform="translate(39.922 354.646)" fill="#ffdfe4"/>
        <path id="Path_66" data-name="Path 66" d="M0,0,76.4,2.089,76.1,6.956Z" transform="translate(39.922 354.646)" fill="#ff7f86"/>
        <line id="Line_19" data-name="Line 19" x2="134.54" y2="11.218" transform="translate(129.938 360.572)" fill="#ffdfe4"/>
        <path id="Path_67" data-name="Path 67" d="M.411,0,134.742,13.634,0,4.853Z" transform="translate(129.736 358.149)" fill="#ff7f86"/>
      </g>
    </g>
  </g>
</svg>
