<svg xmlns="http://www.w3.org/2000/svg" viewBox="0 0 90.57 127.15"><defs><style>.cls-1{fill:#dadbdc;}.cls-1,.cls-2{stroke:#231f20;stroke-miterlimit:10;stroke-width:0.5px;}.cls-2{fill:#fcdcdd;}</style></defs><title>Asset 1</title><g id="Layer_2" data-name="Layer 2"><g id="Layer_1-2" data-name="Layer 1"><path class="cls-1" d="M21.26,84S8.51,86.21,8.17,101.76s13.48,27.37,43.23,24.79c28.44-2.47,37.25-13.34,38.62-24.1s-1.37-22.73-19-22.73"/><path class="cls-1" d="M18.2,87.59s-.85-18,8.41-22.57S53.17,57.5,57.53,57.5,73.9,57.37,80.3,84.57"/><path class="cls-1" d="M36.16,63.23,31.51,47.05c-1-2.35-1.53-9.33-2.13-12.78,0,0-.2-11.72-1.76-18.81C26.33,9.6,18.36.5,12.31,2.27,3.65,4.79-.82,19.69.47,30.87,1,35.88,4.2,42.47,7,46.71A247.27,247.27,0,0,0,25.48,67.08"/><path class="cls-2" d="M32.43,61.89A9.41,9.41,0,0,0,26.61,65c-.09-.63-5.8-9.26-8.44-13.17-2-3-9.37-11.51-10.41-17.85C6.44,26,8,19.19,13.63,16.2c3.89-2,7.37,3,7.9,6L25.3,40.05A75.75,75.75,0,0,0,28,49.9Z"/><path class="cls-1" d="M49.13,60.29c-.68-15.41-2.92-18-4.11-27A34.69,34.69,0,0,1,50.55,8.8C56.67-.5,65.41.27,65.41.27c5.41.92,9.07,6.72,7.6,26,0,0-.83,18.86-9.21,36.49"/><path class="cls-2" d="M61.22,58.83c-4.58-2.65-9.84-1.09-9.84-1.09.2-.61.41-9.54.29-12.31-.2-5-1.92-9.88-.66-18.5.61-4.22,5.61-13.22,13.1-12,4.63.78,3.78,11.38,3.39,16.44C67.14,36.2,61.22,58.83,61.22,58.83Z"/></g></g></svg>