<svg xmlns="http://www.w3.org/2000/svg" width="1169" height="432" viewBox="0 0 1169 432">
  <g id="Group_12" data-name="Group 12" transform="translate(-205 -246)">
    <g id="Group_9" data-name="Group 9" transform="translate(221.358 257.996)">
      <ellipse id="Ellipse_19" data-name="Ellipse 19" cx="415.5" cy="84.5" rx="415.5" ry="84.5" transform="translate(-0.358 185.004)" fill="#f2a9a9"/>
      <ellipse id="Ellipse_20" data-name="Ellipse 20" cx="160" cy="65" rx="160" ry="65" transform="translate(116.642 121.004)" fill="#f2a9a9"/>
      <ellipse id="Ellipse_21" data-name="Ellipse 21" cx="160" cy="65" rx="160" ry="65" transform="translate(369.642 290.004)" fill="#f2a9a9"/>
      <ellipse id="Ellipse_22" data-name="Ellipse 22" cx="246.5" cy="140" rx="246.5" ry="140" transform="translate(244.642 0.004)" fill="#f2a9a9"/>
      <ellipse id="Ellipse_23" data-name="Ellipse 23" cx="263" cy="65" rx="263" ry="65" transform="translate(626.642 251.004)" fill="#f2a9a9"/>
      <ellipse id="Ellipse_24" data-name="Ellipse 24" cx="204.5" cy="89.5" rx="204.5" ry="89.5" transform="translate(626.642 101.004)" fill="#f2a9a9"/>
    </g>
    <g id="Group_8" data-name="Group 8" transform="translate(205 246)">
      <ellipse id="Ellipse_19-2" data-name="Ellipse 19" cx="415.5" cy="84.5" rx="415.5" ry="84.5" transform="translate(0 185)" fill="#fff"/>
      <ellipse id="Ellipse_20-2" data-name="Ellipse 20" cx="159.5" cy="65" rx="159.5" ry="65" transform="translate(117 121)" fill="#fff"/>
      <ellipse id="Ellipse_21-2" data-name="Ellipse 21" cx="159.5" cy="65" rx="159.5" ry="65" transform="translate(370 290)" fill="#fff"/>
      <ellipse id="Ellipse_22-2" data-name="Ellipse 22" cx="246.5" cy="140" rx="246.5" ry="140" transform="translate(244)" fill="#fff"/>
      <ellipse id="Ellipse_23-2" data-name="Ellipse 23" cx="263" cy="65" rx="263" ry="65" transform="translate(627 251)" fill="#fff"/>
      <ellipse id="Ellipse_24-2" data-name="Ellipse 24" cx="204.5" cy="89.5" rx="204.5" ry="89.5" transform="translate(627 101)" fill="#fff"/>
    </g>
  </g>
</svg>
