<svg xmlns="http://www.w3.org/2000/svg" width="373" height="131" viewBox="0 0 373 131">
  <g id="Group_22" data-name="Group 22" transform="translate(-205 -246)">
    <g id="Group_9" data-name="Group 9" transform="translate(211 250)">
      <ellipse id="Ellipse_19" data-name="Ellipse 19" cx="148" cy="30" rx="148" ry="30" transform="translate(0 49)" fill="#f2a9a9"/>
      <ellipse id="Ellipse_20" data-name="Ellipse 20" cx="57" cy="23" rx="57" ry="23" transform="translate(41 34)" fill="#f2a9a9"/>
      <ellipse id="Ellipse_21" data-name="Ellipse 21" cx="57" cy="23" rx="57" ry="23" transform="translate(112 81)" fill="#f2a9a9"/>
      <ellipse id="Ellipse_22" data-name="Ellipse 22" cx="87.5" cy="50" rx="87.5" ry="50" transform="translate(71)" fill="#f2a9a9"/>
      <ellipse id="Ellipse_23" data-name="Ellipse 23" cx="93.5" cy="23.5" rx="93.5" ry="23.5" transform="translate(180 66)" fill="#f2a9a9"/>
      <ellipse id="Ellipse_24" data-name="Ellipse 24" cx="73" cy="32" rx="73" ry="32" transform="translate(180 27)" fill="#f2a9a9"/>
    </g>
    <g id="Group_8" data-name="Group 8" transform="translate(205 246)">
      <ellipse id="Ellipse_19-2" data-name="Ellipse 19" cx="148" cy="30" rx="148" ry="30" transform="translate(0 49)" fill="#fff4f8"/>
      <ellipse id="Ellipse_20-2" data-name="Ellipse 20" cx="57" cy="23" rx="57" ry="23" transform="translate(41 34)" fill="#fff4f8"/>
      <ellipse id="Ellipse_21-2" data-name="Ellipse 21" cx="57" cy="23" rx="57" ry="23" transform="translate(112 80)" fill="#fff4f8"/>
      <ellipse id="Ellipse_22-2" data-name="Ellipse 22" cx="87.5" cy="50" rx="87.5" ry="50" transform="translate(71)" fill="#fff4f8"/>
      <ellipse id="Ellipse_23-2" data-name="Ellipse 23" cx="93.5" cy="23" rx="93.5" ry="23" transform="translate(180 66)" fill="#fff4f8"/>
      <ellipse id="Ellipse_24-2" data-name="Ellipse 24" cx="73" cy="32" rx="73" ry="32" transform="translate(180 26)" fill="#fff4f8"/>
    </g>
  </g>
</svg>
