<svg xmlns="http://www.w3.org/2000/svg" width="38.655" height="38.656" viewBox="0 0 38.655 38.656">
  <g id="link-svgrepo-com" transform="translate(-0.001 0)">
    <path id="Path_127" data-name="Path 127" d="M85.319,2.589a8.863,8.863,0,0,0-12.519,0h0L67.34,8.05l2.521,2.52,5.462-5.463h0a5.288,5.288,0,0,1,7.476,7.48l-8.2,8.2a5.286,5.286,0,0,1-7.476,0L64.605,23.3a8.851,8.851,0,0,0,12.518,0l8.2-8.2A8.863,8.863,0,0,0,85.319,2.589Z" transform="translate(-49.251 0)" fill="#af8383"/>
    <path id="Path_128" data-name="Path 128" d="M12.587,74.494h0A5.288,5.288,0,0,1,5.11,67.015L13.3,58.821a5.293,5.293,0,0,1,7.477,0L23.3,56.3a8.862,8.862,0,0,0-12.519,0l-8.2,8.195a8.853,8.853,0,0,0,12.518,12.52h0l5.462-5.464-2.521-2.521Z" transform="translate(0 -40.946)" fill="#af8383"/>
  </g>
</svg>
