<svg xmlns="http://www.w3.org/2000/svg" viewBox="0 0 657.46 602.12"><defs><style>.cls-1,.cls-6{fill:#ffdfe4;}.cls-2{fill:#ff7f86;}.cls-14,.cls-15,.cls-17,.cls-3,.cls-4,.cls-5,.cls-9{stroke:#1a1a1a;}.cls-10,.cls-14,.cls-17,.cls-3,.cls-4,.cls-5,.cls-6,.cls-7,.cls-8{stroke-linecap:square;}.cls-10,.cls-14,.cls-15,.cls-17,.cls-20,.cls-3,.cls-4,.cls-5,.cls-6,.cls-7,.cls-8,.cls-9{stroke-linejoin:bevel;}.cls-4{fill:#743e00;}.cls-5{fill:#2a1b00;}.cls-10,.cls-20,.cls-6,.cls-7,.cls-8{stroke:#4d4d4d;}.cls-10,.cls-20,.cls-6,.cls-7,.cls-8,.cls-9{stroke-width:2px;}.cls-20,.cls-7{fill:#1d0035;}.cls-18,.cls-8{fill:#fff;}.cls-9{fill:none;}.cls-15,.cls-20,.cls-9{stroke-linecap:round;}.cls-10,.cls-11{fill:#e9f2ff;}.cls-12{fill:#4d4d4d;}.cls-13{fill:#1a1a1a;}.cls-14{fill:#2a1100;}.cls-16{fill:#42210b;}.cls-17,.cls-19{fill:#4a2e00;}</style></defs><g id="Layer_2" data-name="Layer 2"><g id="Layer_1-2" data-name="Layer 1"><path class="cls-1" d="M418.83,590.8s-35.09-34.91-35.05-53"/><path class="cls-2" d="M418.62,591a56.74,56.74,0,0,1-14-9.21,78.21,78.21,0,0,1-11.24-12.11,63,63,0,0,1-8.31-14.63,36.79,36.79,0,0,1-2.27-8.4,18.43,18.43,0,0,1,.67-8.82l0-.1a.29.29,0,0,1,.38-.16.28.28,0,0,1,.18.26,23.65,23.65,0,0,0,1.77,7.7,51.14,51.14,0,0,0,3.43,7.21,117.29,117.29,0,0,0,8.91,13.34c3.18,4.31,6.57,8.48,10.06,12.55q2.63,3,5.34,6c1.79,2,3.6,4,5.45,5.92a.3.3,0,0,1,0,.42.29.29,0,0,1-.32,0Z"/><line class="cls-1" x1="504.76" y1="44.1" x2="428.39" y2="587.79"/><path class="cls-2" d="M505.1,44.15,487.4,180.27l-18,136.07-8.89,68.05-4.6,34c-1.58,11.33-3.24,22.64-4.91,34l-5.18,33.92c-1.8,11.3-3.53,22.61-5.4,33.9s-3.71,22.57-5.63,33.86l-3,16.9-1.49,8.46-1.55,8.44a.35.35,0,0,1-.41.28.36.36,0,0,1-.29-.37l.83-8.55.9-8.54,1.81-17.07q1.91-17.05,3.92-34.1c1.31-11.37,2.76-22.71,4.15-34.07l4.36-34q2.26-17,4.64-34l5-33.95,10.2-67.87,20.13-135.78L504.41,44.05a.35.35,0,0,1,.4-.29A.34.34,0,0,1,505.1,44.15Z"/><line class="cls-1" x1="446.33" y1="97.3" x2="386.98" y2="519.81"/><path class="cls-2" d="M446.68,97.35,433.23,203.17l-13.8,105.77-6.76,52.91-3.53,26.43c-1.23,8.81-2.54,17.6-3.85,26.39L401.17,441c-1.44,8.77-2.82,17.56-4.33,26.32-3,17.54-6,35.06-9.51,52.52a.36.36,0,0,1-.41.28.35.35,0,0,1-.28-.38c1.48-17.74,3.33-35.43,5.32-53.1,1-8.85,2.06-17.67,3.09-26.5l3.3-26.46c1.16-8.82,2.33-17.63,3.57-26.43l3.89-26.38,8.07-52.72,15.88-105.49L446,97.25a.35.35,0,0,1,.7.1Z"/><path class="cls-3" d="M388.29,169c16.24,15.7,22.26,48.32,15.87,68.26-6,18.67-68.72,84-74.41,95.36C324.38,343.27,299,440.63,295.94,451a8.57,8.57,0,0,0-.35,2c-.31,5.17-6.18,17.87-1.48,31.65,5.31,15.56-10.85,53.2-10.85,53.2,14.45-15.14,22.65-51.48,18.57-68.74s27.07-63.15,33.63-72.92,56.72-56.11,66.51-66.37c10.32-10.81,20.76-38.44,25.51-56.13,3.55-13.25-4.31-25.65,3.83-46.25,7.25-18.36-12.67-49.4-18.63-57.51-8.61-11.69-23.23-6.72-23.23-6.72"/><path class="cls-4" d="M395.7,161.36c12.78,12.47,17.92,47.23,17.63,68.9-.32,23.87-51.94,67.23-61.12,79.17S340,356.11,356,388s-16.65,53.59-32.16,95.09,6.76,81,6.76,81-8.14-23-5.91-41.37,57.64-72.19,60.35-84.86-25.75-72.2-26.65-88.63S406,309,429.52,261.2s-26.7-105.61-26.7-105.61"/><path class="cls-3" d="M422.16,172.82c16.21,15.74,22.17,48.37,15.75,68.29-6,18.66-68.88,83.9-74.59,95.23-5.39,10.68-31,108-34,118.35a8.93,8.93,0,0,0-.35,2c-.32,5.16-6.21,17.85-1.54,31.64,5.28,15.56-10.95,53.17-10.95,53.17,14.48-15.1,22.74-51.43,18.7-68.7s27.19-63.1,33.76-72.85,56.82-56,66.63-66.25c10.34-10.79,20.84-38.4,25.61-56.08,3.58-13.25-4.25-25.66,3.92-46.25,7.28-18.35-12.57-49.42-18.52-57.54-8.59-11.71-23.21-6.77-23.21-6.77"/><path class="cls-3" d="M437.33,166.3c-24-7-59,4-75,20-15,15-45,106-53,117-7.54,10.37-88.76,83.19-97.22,91.25a9.5,9.5,0,0,1-1.75,1.33c-4.87,2.9-14.09,14.76-30,17.42-18,3-46,37-46,37,7-21,38-47,57-52s47-57,53-68,24.26-80.77,29-95c5-15,26.31-38.65,41-52,11-10,27.29-9.05,43-27,14-16,54.91-13.39,66-12,16,2,19,18,19,18"/><path class="cls-5" d="M442.83,162.8s39.64,14.35,48.49,41.89c9.72,30.22-11.48,136.1-28.84,148.42s-53.89,66.05-40,97.23,10.41,61.37-7.5,72.82-43,32.36-43.95,40.26c0,0,2.37-28.24,15.11-32.74s24.53-21.77,25.95-42.11-27.32-61.49-26-74.47S389.76,358.58,404,348c35-26,62.44-70.54,72.91-96.44s-29.91-75.49-38-78.79"/><path class="cls-3" d="M446.14,169c16.21,15.74,22.17,48.37,15.75,68.29-6,18.66-68.88,83.9-74.59,95.23-5.38,10.68-31,108-34,118.35a8.93,8.93,0,0,0-.35,2c-.31,5.16-6.21,17.85-1.53,31.64,5.28,15.56-11,53.17-11,53.17,14.48-15.11,22.75-51.43,18.7-68.7s27.19-63.1,33.76-72.85,56.83-56,66.63-66.25c10.34-10.79,20.84-38.4,25.62-56.08,3.58-13.25-4.26-25.66,3.91-46.25,7.28-18.35-12.57-49.42-18.52-57.54-8.58-11.71-23.21-6.77-23.21-6.77"/><path class="cls-3" d="M442.27,164.69c19.21,16.87,29.12,53,24.3,75.56C462.05,261.34,401,336.87,396,349.76c-4.68,12.16-22,121.9-24.22,133.59a10.43,10.43,0,0,0-.17,2.23c.21,5.78-4.81,20.2,1.71,35.39,7.37,17.16-6.19,59.84-6.19,59.84,14.05-17.49,19.13-58.39,12.92-77.5s22.69-71.61,28.77-82.78,55.51-65,65-76.82c10-12.5,18.45-43.77,21.74-63.71,2.46-14.94-7.34-28.47-.69-51.8,5.93-20.8-18.85-54.64-26.15-63.44-10.53-12.71-25.83-6.56-25.83-6.56"/><path class="cls-4" d="M438.2,167c12.78,12.47,17.92,47.23,17.63,68.9-.32,23.87-51.94,67.23-61.12,79.18s-12.21,46.67,3.81,78.53-16.65,53.58-32.16,95.09,6.76,81,6.76,81-8.14-23-5.91-41.37,57.64-72.19,60.35-84.85-25.75-72.21-26.65-88.64,47.62-40.17,71.11-88-26.7-105.62-26.7-105.62"/><path class="cls-6" d="M219.33,407.3c-15.13,21.63-54.3,38.8-68,45-42,19-60,59-60,59l78.89,4.83"/><path class="cls-7" d="M150.33,453.3c-42,19-59,58-59,58l78,5s29.71-56.38,27-58C176.33,446.3,150.33,453.3,150.33,453.3Z"/><path class="cls-6" d="M184.33,517.3l24,1c12-16,75-61,75-61,64-21,41-38,70-60s43-17,54-17,72.61-2.41,105-30c27-23,87-67,89-75s11-11,11-11c42-31,45-71,45-71-30,4-54,55-58,60s-16,16-49,36-2,3-51,36-104,22-113,22-29-14-31-22S364.58,300,364.58,300l-22.17-32.83s-19.08,47.09-26.08,49.09c-3.67,1.05-45.83,13.77-52,19-13,11-56,85-61,105-4.42,17.7-44.74,109-60,110-11.23.75-23-4.82-39,1-11,4-29,24-24,24s21-14,30-14,25,8,32,8,18-9,32-35,39.79-66.9,46-74c0,0,54-77,55-80"/><path class="cls-6" d="M386.33,311.3s-37-20-40-26-8-44-8-51c0-15,15-41,21-50,5.23-7.85,31-38.94,83-22,30.65,10,24,53,23,71-.6,10.76-8.7,29.26-15,38-6.16,8.55-19,24-24,28C420.7,303.8,396.33,312.3,386.33,311.3Z"/><path class="cls-8" d="M378.33,271.3s34-3,48,3C426.33,274.3,400.33,318.3,378.33,271.3Z"/><path class="cls-9" d="M411.62,248.15s13,10.83-6,15"/><path class="cls-10" d="M275.33,380.3c25-1,77.11,18.1,77.11,18.1-29,22-6,39-70,60,0,0-18.69,13.35-37.65,28.1,0,0-16.85-19.62-28.65-20.41Z"/><path class="cls-10" d="M216.66,408.71c-13.87,19.84-48,35.92-64.09,43.24l-3.91,1.76s27.49-3.49,47.58,4.55c0,0,7.84-14.87,9-22.42S216.66,408.71,216.66,408.71Z"/><line class="cls-11" x1="275.33" y1="380.3" x2="288.57" y2="325.7"/><path class="cls-12" d="M275.14,380.25a75,75,0,0,1,.73-14.27,128.57,128.57,0,0,1,2.58-13.83,131,131,0,0,1,4.05-13.47,76.38,76.38,0,0,1,5.88-13l.1-.18.33.08,0,.19q-1.54,6.86-3.19,13.68l-3.24,13.66L279,366.73q-1.66,6.81-3.43,13.61l-.06.2-.32-.08Z"/><line class="cls-11" x1="368.33" y1="339.3" x2="352.33" y2="398.3"/><path class="cls-12" d="M368.52,339.35a87.36,87.36,0,0,1-1.44,15.44,148,148,0,0,1-3.28,14.95,151.4,151.4,0,0,1-4.73,14.55,88.48,88.48,0,0,1-6.55,14.06l-.1.18-.33-.09.05-.2q1.89-7.39,3.87-14.78L360,368.69,364,354q2-7.36,4.13-14.72l.05-.19.33.09Z"/><path class="cls-13" d="M423.24,237.12a21.36,21.36,0,0,1,3.15-3.22,26.76,26.76,0,0,1,3.6-2.57,25.49,25.49,0,0,1,4-2,17.51,17.51,0,0,1,4.79-1.19,10.39,10.39,0,0,1,1.49,0,6.48,6.48,0,0,1,.84.07l.43.08.27.06c.73.17,1.45.33,2.16.56a25.28,25.28,0,0,1,4.11,1.67,20.51,20.51,0,0,1,3.78,2.48,12,12,0,0,1,3.06,3.58l.05.09a.19.19,0,0,1-.09.25.17.17,0,0,1-.18,0,23.7,23.7,0,0,0-3.73-1.79c-1.28-.52-2.59-1-3.91-1.39s-2.67-.78-4-1.1c-.67-.16-1.35-.3-2-.44a6.89,6.89,0,0,0-2-.13,29.69,29.69,0,0,0-8,2.07c-2.59,1-5.16,2.1-7.67,3.29a.18.18,0,0,1-.25-.09.19.19,0,0,1,0-.19Z"/><path class="cls-14" d="M437.83,168.8s67,22,41,104.63c-13.53,43-54.92,85.36-60.38,106.64-4.47,17.44-6.19,70.44-.13,90,5.66,18.24-44.46,77-48.73,79.75,0,0,42.2-56.14,33.64-88.32-6.59-24.75-2-89.12,6-103.42,8.39-15.08,52.55-64.84,57.31-88.89,11.36-57.37-17.86-88.48-27.64-94.37"/><path class="cls-13" d="M363.7,226.64a15,15,0,0,1,8.39-6.45,19.29,19.29,0,0,1,5.47-.92,21.75,21.75,0,0,1,5.48.65,25.58,25.58,0,0,1,5,1.93,26.78,26.78,0,0,1,4.37,2.91,27.13,27.13,0,0,1,6.49,7.88l0,.07a.19.19,0,0,1-.07.26.2.2,0,0,1-.21,0c-2.61-1.89-5.16-3.83-7.9-5.46a38.71,38.71,0,0,0-4.25-2.18,31,31,0,0,0-4.5-1.53,25.37,25.37,0,0,0-4.67-.73,21.27,21.27,0,0,0-9.27,1.62A19.25,19.25,0,0,0,364,227a.18.18,0,0,1-.27,0,.2.2,0,0,1,0-.21Z"/><path class="cls-15" d="M388.7,230.77c-.14,3-5.53,5.84-9.87,5s-7.45-5.38-5.86-8c1.86-3,4.53-4.75,8.87-3.94S388.83,227.8,388.7,230.77Z"/><path class="cls-15" d="M438.83,244.8c-3,.23-6-3-6.07-6.41-.08-4.42,5.31-7.85,8.07-6.59,3.24,1.47,5.27,3.59,5,8S441.79,244.57,438.83,244.8Z"/><path class="cls-16" d="M426.72,219.36c3.18-.43,6.29-.75,9.46-1a72.93,72.93,0,0,1,9.6-.16,22.37,22.37,0,0,1,2.5.3c.43.08.86.17,1.31.3s.79.3,1.18.44a23.81,23.81,0,0,1,4.3,2.36,79.26,79.26,0,0,1,7.23,6,79.65,79.65,0,0,0-8.12-4.43,21.35,21.35,0,0,0-4.23-1.33l-1.06-.18c-.31,0-.64-.07-1-.08-.69,0-1.42,0-2.15,0a70,70,0,0,0-8.93,1.38c-3,.63-6,1.36-8.89,2.16h0a3,3,0,0,1-1.6-5.8Z"/><path class="cls-16" d="M401.59,219.29c-2.87-1.49-5.87-2.92-8.86-4.23a67.16,67.16,0,0,0-9.1-3.36,19.21,19.21,0,0,0-2.25-.47,9.71,9.71,0,0,0-1.05-.09h-1.16a22.08,22.08,0,0,0-4.72.7,86,86,0,0,0-9.34,3.39,85,85,0,0,1,8.73-5.11,24.48,24.48,0,0,1,5-1.7c.44-.1.88-.17,1.32-.25a10.27,10.27,0,0,1,1.45-.07,21.55,21.55,0,0,1,2.7.21,71.77,71.77,0,0,1,10.06,2.3c3.27,1,6.46,2,9.7,3.2a3,3,0,0,1-2.07,5.65,2.07,2.07,0,0,1-.34-.15Z"/><path class="cls-5" d="M442.83,162.8s-22.67-17.29-50-10c-30,8-106,82-107,103s-26,80-59,85-56,24-56,45-4,53-10,58c0,0,22-17,19-30s5-32,21-44,65-10,75-18,43.79-32.58,45-50c3-43,25.19-89.5,41-112s72-25,79-20"/><path class="cls-4" d="M438.83,174.8c-17-4-48.31,10.23-66,22-19.48,13-28,79-33,93s-32,35-66.65,38.62-35.35,42.38-61.35,77.38-70.25,37.48-70.25,37.48,23.25-5.48,37.18-17.09,29.07-86.39,38.07-95.39,73-17,87-25,8-61,35-106,101-34,101-34"/><path class="cls-6" d="M351.33,230.3a7.65,7.65,0,0,1-5,2c-3,0-7-23-1-26s11,6,11,6"/><path class="cls-14" d="M437.82,169s-63-4.16-95,30.84c-29.88,32.68-41.36,91.13-56,107-12,13-54.73,42.64-74,48-18,5-40,78-40,83,0,0,24-65,55-75,23.84-7.69,74.41-45.78,82-60,8-15,26-78,43-95,31-31,72-34,82-29"/><path class="cls-17" d="M436.59,185.48s-41,2.43-53.11,7.26c-16,6.42-23.59,42.68-27.7,50.62s-22.57,40.69-54.59,42.25-38.33,95.48-38.33,95.48-.63-99,15.45-104.8,67.23-16.07,73.52-37,16.55-54.19,31.86-61.57c19.11-9.21,44.13-9.39,55.08-5.23"/><path class="cls-17" d="M436.83,184.8s27,9,33,34c4.12,17.15-32.38,61.19-37,69s-.94,54.32,15,83l10,12-6.31-12.63a13,13,0,0,1-1-2.71c-4.46-18.12-13.27-51.46-5.69-71.66,3-8,32.91-60.76,31-78-2.38-21.54-22-39-37-43"/><circle class="cls-18" cx="385.83" cy="228.8" r="1"/><circle class="cls-18" cx="441.33" cy="236.3" r="1"/><path class="cls-14" d="M443.06,162.13s67,22,41,104.63c-13.53,43-54.92,85.37-60.37,106.64-4.47,17.44-6.2,70.44-.14,90,5.66,18.24-44.46,77-48.73,79.75,0,0,42.2-56.14,33.64-88.32-6.59-24.75-2-89.12,5.95-103.42,8.39-15.08,52.55-64.84,57.31-88.89,11.36-57.37-18.87-89.7-31.87-93.7"/><rect class="cls-19" x="437.49" y="157.33" width="3.56" height="27.72" transform="translate(61.02 -110.22) rotate(15.36)"/><line class="cls-1" x1="55.33" y1="500.3" x2="115.33" y2="65.3"/><path class="cls-2" d="M55,500.25,68.6,391.31l14-108.9L89.4,228,93,200.74c1.24-9.07,2.56-18.12,3.89-27.17L101,146.44c1.46-9,2.84-18.08,4.37-27.1,3-18.06,6.1-36.1,9.59-54.09a.35.35,0,0,1,.7.1c-1.51,18.26-3.39,36.47-5.41,54.66-1,9.1-2.09,18.18-3.13,27.27l-3.34,27.25c-1.17,9.07-2.35,18.14-3.61,27.2L96.26,228.9,88.1,283.18l-16,108.61L55.68,500.35a.35.35,0,0,1-.4.29A.36.36,0,0,1,55,500.25Z"/><line class="cls-1" x1="120.33" y1="63.3" x2="448.33" y2="91.3"/><path class="cls-2" d="M120.36,63c27.38,1.77,54.75,3.74,82.12,5.6l82.09,6,41.06,2.83q20.52,1.43,41,3.47L387.09,83c6.82.79,13.64,1.51,20.45,2.37C421.17,87,434.78,88.78,448.36,91a.35.35,0,0,1,.29.4.36.36,0,0,1-.35.3c-13.75-.17-27.47-.72-41.18-1.4-6.86-.3-13.7-.75-20.55-1.13L366,87.78q-20.52-1.44-41-3.53l-41-4.16-81.91-8c-27.29-2.8-54.59-5.5-81.88-8.39a.36.36,0,0,1-.31-.39A.35.35,0,0,1,120.36,63Z"/><line class="cls-1" x1="427.35" y1="601.77" x2="0.33" y2="572.98"/><path class="cls-2" d="M427.33,602.12l-106.85-5.8-106.83-6.15-53.42-2.94-26.7-1.62c-8.9-.59-17.79-1.26-26.68-1.94l-26.66-2.21c-8.88-.81-17.77-1.55-26.65-2.43-17.76-1.68-35.51-3.5-53.23-5.7a.37.37,0,0,1-.31-.4.35.35,0,0,1,.35-.3c17.86.2,35.7.78,53.52,1.49,8.92.32,17.83.78,26.74,1.17l26.71,1.39c8.9.52,17.81,1.05,26.7,1.66l26.68,2L214,584.58l106.69,8.25,106.66,8.6a.35.35,0,0,1,.32.37A.35.35,0,0,1,427.33,602.12Z"/><line class="cls-1" x1="1.62" y1="562.68" x2="78.83" y2="2.92"/><path class="cls-2" d="M1.27,562.63,19.19,422.5,37.45,282.42l9-70.06,4.65-35c1.6-11.66,3.28-23.31,5-35l5.23-34.92c1.81-11.64,3.56-23.28,5.45-34.9s3.75-23.25,5.68-34.87l3-17.41,1.5-8.71,1.57-8.69a.36.36,0,0,1,.41-.29.35.35,0,0,1,.28.38l-.84,8.8-.91,8.78L75.58,38.13q-1.92,17.55-4,35.1c-1.33,11.7-2.8,23.38-4.2,35.07l-4.42,35q-2.3,17.5-4.68,35l-5,35L43,283.19,22.65,423,2,562.73a.34.34,0,0,1-.39.29A.35.35,0,0,1,1.27,562.63Z"/><line class="cls-1" x1="85.26" y1="0.35" x2="507.33" y2="36.38"/><path class="cls-2" d="M85.29,0,190.93,7.61l105.6,8,52.82,3.85,26.39,2.07c8.8.74,17.58,1.56,26.37,2.4l26.35,2.66c8.77.95,17.55,1.84,26.32,2.87,17.55,2,35.08,4.11,52.58,6.61a.35.35,0,0,1-.06.7c-17.67-.5-35.31-1.38-52.94-2.4-8.81-.47-17.62-1.08-26.43-1.63l-26.41-1.84c-8.8-.67-17.6-1.35-26.4-2.11l-26.36-2.43-52.7-5.17-105.43-10L85.23.7a.35.35,0,0,1-.31-.38A.35.35,0,0,1,85.29,0Z"/><path class="cls-1" d="M83.83,5.8s23,48,30,53"/><path class="cls-2" d="M84.1,5.67A69,69,0,0,1,94.44,17.55a119.83,119.83,0,0,1,7.93,13,141.88,141.88,0,0,1,6.34,13.71q1.4,3.51,2.64,7.11c.37,1.24.83,2.4,1.23,3.62.2.62.43,1.2.66,1.8l.35.91.42.87.06.14a.28.28,0,0,1-.41.35,15,15,0,0,1-2.72-2.8c-.8-1-1.56-2-2.28-3.09-1.44-2.12-2.78-4.3-4.09-6.49-2.6-4.38-5.08-8.84-7.5-13.32s-4.66-9.06-6.93-13.62l-3.36-6.86L83.56,5.93a.3.3,0,0,1,.14-.39.29.29,0,0,1,.31,0Z"/><path class="cls-1" d="M451.83,85.8s27-39,47-40"/><path class="cls-2" d="M451.58,85.63a51.61,51.61,0,0,1,6.63-15.09,68.8,68.8,0,0,1,10.23-12.7c1-1,2-1.88,3-2.79s2.12-1.78,3.26-2.59a45.27,45.27,0,0,1,7.2-4.43,33.11,33.11,0,0,1,8.17-2.85,17.36,17.36,0,0,1,8.71.32l.1,0a.28.28,0,0,1,.18.36.29.29,0,0,1-.25.2,21.88,21.88,0,0,0-7.46,2A45,45,0,0,0,484.61,52a68,68,0,0,0-6.21,4.79c-2,1.69-3.91,3.48-5.77,5.33-3.77,3.64-7.33,7.51-10.74,11.5-1.7,2-3.37,4-5,6.1s-3.27,4.12-4.82,6.24a.29.29,0,0,1-.41.06.28.28,0,0,1-.11-.3Z"/><path class="cls-1" d="M8.83,562.8s36-23,40-49"/><path class="cls-2" d="M8.67,562.54A146.54,146.54,0,0,1,19,549.75c3.5-4,7-7.77,10.46-11.56,1.74-1.88,3.43-3.78,5.09-5.69.86-.94,1.63-1.93,2.49-2.88s1.63-1.93,2.41-2.93a106.4,106.4,0,0,0,9.11-12.94l.06-.1a.3.3,0,0,1,.4-.1.32.32,0,0,1,.14.29,40.23,40.23,0,0,1-2,7.92,49.29,49.29,0,0,1-3.54,7.36,66.74,66.74,0,0,1-4.51,6.8c-1.62,2.18-3.35,4.28-5.17,6.3a124.82,124.82,0,0,1-11.8,11.2A117.52,117.52,0,0,1,9,563.05a.3.3,0,0,1-.4-.09.31.31,0,0,1,0-.32Z"/><path class="cls-20" d="M184.33,517.3l32-51s12,0,28,20c0,0-32.25,25.57-36,32Z"/><line class="cls-1" x1="57.33" y1="509.3" x2="166.83" y2="515.8"/><polygon class="cls-2" points="57.33 509.3 167.04 512.3 166.62 519.29 57.33 509.3"/><line class="cls-1" x1="186.6" y1="517.81" x2="379.81" y2="533.92"/><polygon class="cls-2" points="186.9 514.33 379.81 533.91 186.31 521.3 186.9 514.33"/></g></g></svg>